<svg enable-background="new 0 0 453.6 86.1" viewBox="0 0 453.6 86.1" xmlns="http://www.w3.org/2000/svg" xmlns:xlink="http://www.w3.org/1999/xlink"><linearGradient id="a"><stop offset=".3139" stop-color="#fff" stop-opacity="0"/><stop offset="1" stop-color="#231f20"/></linearGradient><linearGradient id="b" gradientTransform="matrix(-.6712 -.7413 -.7413 .6712 348.6214 -368.9271)" gradientUnits="userSpaceOnUse" x1="-122.3872" x2="-88.6429" xlink:href="#a" y1="467.244" y2="467.244"/><linearGradient id="c" gradientTransform="matrix(-.6712 -.7413 -.7413 .6712 348.6214 -368.9271)" gradientUnits="userSpaceOnUse" x1="-143.194" x2="-143.194" xlink:href="#a" y1="444.1488" y2="394.4569"/><linearGradient id="d" gradientTransform="matrix(-.6712 -.7413 -.7413 .6712 348.6214 -368.9271)" gradientUnits="userSpaceOnUse" x1="-139.3031" x2="-164.3303" xlink:href="#a" y1="483.5226" y2="483.5226"/><linearGradient id="e" gradientTransform="matrix(.6712 .7413 .7413 -.6712 -1286.5106 -4791.0742)" gradientUnits="userSpaceOnUse" x1="4457.7471" x2="4428.4722" y1="-2265.7493" y2="-2265.7493"><stop offset=".3139" stop-color="#fff" stop-opacity="0"/><stop offset=".3336" stop-color="#f3f3f3" stop-opacity=".028685"/><stop offset=".4334" stop-color="#bdbcbc" stop-opacity=".1742"/><stop offset=".5338" stop-color="#8e8c8c" stop-opacity=".3204"/><stop offset=".6326" stop-color="#676565" stop-opacity=".4645"/><stop offset=".7297" stop-color="#494647" stop-opacity=".606"/><stop offset=".8244" stop-color="#343031" stop-opacity=".744"/><stop offset=".9157" stop-color="#272324" stop-opacity=".8772"/><stop offset="1" stop-color="#231f20"/></linearGradient><linearGradient id="f" gradientTransform="matrix(-.6712 -.7413 -.7413 .6712 348.6214 -368.9271)" gradientUnits="userSpaceOnUse" x1="-141.2483" x2="-141.2483" xlink:href="#a" y1="475.3164" y2="492.0218"/><linearGradient id="g" gradientTransform="matrix(-.6712 -.7413 -.7413 .6712 348.6214 -368.9271)" gradientUnits="userSpaceOnUse" x1="-141.2752" x2="-141.2752" xlink:href="#a" y1="431.3302" y2="448.0337"/><linearGradient id="h" gradientTransform="matrix(1 .0025 .0025 -1 26.5378 157.4131)" gradientUnits="userSpaceOnUse" x1="67.5907" x2="75.8957" xlink:href="#a" y1="105.2815" y2="113.7064"/><linearGradient id="i" gradientTransform="matrix(1 .0025 .0025 -1 26.5378 157.4131)" gradientUnits="userSpaceOnUse" x1="49.7814" x2="60.4958" xlink:href="#a" y1="118.0812" y2="107.0057"/><linearGradient id="j" gradientTransform="matrix(1 .0025 .0025 -1 26.5378 157.4131)" gradientUnits="userSpaceOnUse" x1="73.6936" x2="67.4704" xlink:href="#a" y1="91.767" y2="97.9902"/><linearGradient id="k" gradientTransform="matrix(1 .0025 .0025 -1 26.5378 157.4131)" gradientUnits="userSpaceOnUse" x1="33.8234" x2="43.3644" xlink:href="#a" y1="76.9685" y2="85.1004"/><g fill="#fff"><path d="m209.3 26.2c-7.9 0-11.8 3.9-11.8 11.7v2.2h8.6c1.2 0 2.3.4 3.1 1.3.9.9 1.3 1.9 1.3 3.1 0 1.3-.4 2.3-1.3 3.2s-1.9 1.3-3.1 1.3h-8.6v32c0 .6-.1 1.2-.3 1.7s-.5 1-.9 1.4-.9.7-1.4 1c-.5.2-1.1.3-1.8.3-.6 0-1.2-.1-1.7-.3s-1-.5-1.4-1c-.4-.4-.7-.9-.9-1.4s-.3-1.1-.3-1.7v-32h-2c-1.3 0-2.3-.4-3.2-1.3-.8-.9-1.3-1.9-1.3-3.2s.4-2.3 1.3-3.2c.8-.8 1.9-1.3 3.2-1.3h2v-2c0-13.8 6.9-20.7 20.7-20.7 1.2 0 2.3.4 3.1 1.3.9.9 1.3 1.9 1.3 3.1 0 1.3-.4 2.3-1.3 3.2-1.1.9-2.1 1.3-3.3 1.3z"/><path d="m255.8 81.1v-.9c-2.1 1.7-4.5 3-7 3.9s-5.2 1.4-8 1.4c-6.6 0-12.2-2.3-16.9-7s-7-10.3-7-16.9 2.3-12.2 7-16.9 10.3-7 16.9-7c6.5 0 12.2 2.3 16.9 7s7 10.3 7 16.9v19.5c0 1.2-.4 2.3-1.3 3.1-.9.9-1.9 1.3-3.1 1.3-1.3 0-2.3-.4-3.2-1.3-.9-.8-1.3-1.9-1.3-3.1zm-15-34.4c-2.1 0-4.1.4-5.9 1.2s-3.4 1.9-4.7 3.2c-1.3 1.4-2.4 2.9-3.2 4.8-.8 1.8-1.2 3.8-1.2 5.8s.4 4 1.2 5.8 1.8 3.4 3.2 4.8c1.3 1.4 2.9 2.4 4.7 3.2s3.8 1.2 5.9 1.2 4-.4 5.8-1.2 3.4-1.9 4.8-3.2c1.4-1.4 2.4-3 3.2-4.8s1.2-3.7 1.2-5.8c0-2-.4-4-1.2-5.8s-1.8-3.4-3.2-4.8-2.9-2.4-4.8-3.2c-1.8-.8-3.7-1.2-5.8-1.2z"/><path d="m307.9 72c1.3 0 2.3.4 3.2 1.3.8.8 1.3 1.9 1.3 3.2s-.5 2.3-1.4 3.3c-4.4 3.9-9.6 5.8-15.6 5.8-6.6 0-12.2-2.3-16.9-7s-7-10.3-7-16.9 2.3-12.2 7-16.9 10.3-7 16.9-7c6 0 11.2 1.9 15.6 5.8 1 .9 1.5 2 1.5 3.4 0 1.3-.4 2.3-1.3 3.2-.8.9-1.9 1.3-3.2 1.3-1.1 0-2-.3-2.9-1-1.5-1.2-3-2.1-4.6-2.8-1.6-.6-3.3-.9-5.2-.9-2.1 0-4 .4-5.8 1.2s-3.4 1.8-4.8 3.2-2.4 2.9-3.2 4.8c-.8 1.8-1.2 3.8-1.2 5.8 0 2.1.4 4 1.2 5.8s1.9 3.4 3.2 4.8c1.4 1.4 3 2.4 4.8 3.2s3.8 1.2 5.8 1.2c1.9 0 3.6-.3 5.2-.9s3.1-1.5 4.5-2.8c.8-.7 1.8-1.1 2.9-1.1z"/><path d="m331.4 29.3c0 1.5-.5 2.7-1.5 3.7s-2.3 1.5-3.7 1.5c-1.5 0-2.7-.5-3.7-1.5s-1.5-2.3-1.5-3.7c0-1.5.5-2.7 1.5-3.7s2.3-1.5 3.7-1.5c1.5 0 2.7.5 3.7 1.5s1.5 2.2 1.5 3.7zm-9.7 51.8v-38.9c0-1.3.4-2.3 1.3-3.2s1.9-1.3 3.1-1.3 2.3.4 3.1 1.3c.9.9 1.3 1.9 1.3 3.2v38.8c0 1.3-.5 2.3-1.3 3.2-.9.9-1.9 1.3-3.1 1.3s-2.3-.4-3.1-1.3c-.9-.8-1.3-1.9-1.3-3.1z"/><path d="m339.4 81.1v-59.3c0-1.3.4-2.3 1.3-3.2.8-.9 1.9-1.3 3.2-1.3s2.3.4 3.2 1.3c.8.9 1.3 1.9 1.3 3.2v54.9h2c1.2 0 2.3.4 3.1 1.3.9.9 1.3 1.9 1.3 3.2 0 1.2-.4 2.3-1.3 3.1-.9.9-1.9 1.3-3.1 1.3h-6.5c-1.2 0-2.3-.4-3.1-1.3-1-.9-1.4-2-1.4-3.2z"/><path d="m396.6 72.1c1.3 0 2.3.4 3.2 1.3.8.8 1.3 1.9 1.3 3.2s-.4 2.3-1.3 3.2c-4.4 3.9-9.6 5.8-15.6 5.8-6.6 0-12.2-2.3-16.9-7s-7-10.3-7-16.9 2.3-12.2 7-16.9 10.3-7 16.9-7c6.5 0 12.2 2.3 16.9 7 2.3 2.3 4.1 4.9 5.2 7.7 1.2 2.8 1.7 5.9 1.7 9.2 0 1.3-.4 2.3-1.3 3.2-.9.8-1.9 1.3-3.2 1.3h-33.8c.5 1.6 1.2 3 2.1 4.3s2 2.4 3.3 3.3 2.7 1.6 4.2 2.2c1.5.5 3.1.8 4.8.8 1.9 0 3.6-.3 5.2-.9s3-1.4 4.4-2.6c.8-.8 1.8-1.2 2.9-1.2zm1.9-14.9c-.5-1.6-1.2-3-2.2-4.3s-2.1-2.4-3.3-3.3c-1.3-.9-2.7-1.6-4.2-2.2-1.5-.5-3.1-.8-4.7-.8s-3.2.3-4.7.8-2.9 1.2-4.2 2.2c-1.3.9-2.4 2-3.3 3.3s-1.6 2.7-2.1 4.3z"/><path d="m423.6 62.8c-2.7-1-4.6-2.1-5.6-3.2-2.2-2.2-3.2-4.8-3.2-7.7 0-2.2.6-4.1 1.7-5.9 1.2-1.7 2.7-3.2 4.5-4.5 1.8-1.2 3.9-2.2 6.3-2.8 2.3-.7 4.6-1 7-1 7.1 0 13.2 2.9 18.3 8.6.6.7.9 1.6.9 2.7 0 1.3-.4 2.3-1.3 3.2-.8.8-1.9 1.3-3.2 1.3-.9 0-1.7-.3-2.3-.8s-1.3-1.1-1.9-1.7c-2.9-2.9-6.4-4.4-10.6-4.4-4.1 0-7.4 1.3-9.8 3.8-.5.5-.7 1.1-.7 1.9s.4 1.3 1.1 1.6l20 6.6c2.8 1.1 4.7 2.1 5.6 3.2 2.2 2.2 3.2 4.8 3.2 7.7 0 2.2-.6 4.2-1.7 5.9-1.2 1.7-2.7 3.2-4.5 4.5-1.9 1.2-3.9 2.2-6.2 2.8-2.3.7-4.6 1-7 1-7.2 0-13.3-2.8-18.3-8.5-.6-.8-.9-1.7-.9-2.8 0-1.3.4-2.3 1.3-3.2.8-.8 1.9-1.3 3.2-1.3.9 0 1.7.3 2.4.8.7.6 1.3 1.1 1.8 1.6 2.9 2.9 6.4 4.4 10.6 4.4 4.1 0 7.3-1.3 9.8-3.8.4-.5.6-1.1.6-1.7 0-.8-.4-1.4-1.2-1.7z"/></g><path d="m54.9 17.8c0 1.2.1 2.4.3 3.6.2 1 .4 1.9.8 2.8.7 2 1.8 3.8 3.3 5.5l1 1.1 4 4.4 2.1 2.3 1.1 1.2 16.4 18.1 3.9 4.4 2.1 2.3.7.8.1.1c1.2 1.8 2 3.8 2.5 5.8 0 .2.1.3.1.5s.1.4.1.6c.8 5.2-.8 10.7-4.8 14.7 4.3.2 8.7-1.3 12.2-4.4 3.6-3.3 5.5-7.8 5.6-12.3 0-1.2-.1-2.4-.3-3.6-.2-1-.4-1.9-.8-2.8-.7-2-1.8-3.8-3.3-5.5l-1-1.1-3-3.3-2-2.3-1.1-1.2-16.4-18.2-3.9-4.3-2.1-2.3-1.7-1.9-.1-.1c-1.2-1.8-2-3.8-2.5-5.8 0-.2-.1-.3-.1-.5s-.1-.4-.1-.6c-.8-5.2.8-10.7 4.8-14.7-4.4-.2-8.8 1.3-12.3 4.4-3.6 3.3-5.5 7.8-5.6 12.3z" fill="#2294d3"/><path d="m55 16.2c-.1.5-.1 1-.1 1.5 0 1.2.1 2.4.3 3.6.2 1 .4 1.9.8 2.8.7 2 1.8 3.8 3.3 5.4l1 1.1 4 4.4 2.1 2.3 1.1 1.2 3.1 3.4 9.7-8.8-1.7-1.9-3.9-4.4-2.1-2.3-1.7-1.9-.1-.1c-1.2-1.8-2-3.8-2.5-5.8 0-.2-.1-.3-.1-.5s-.1-.4-.1-.6c-.1-.8-.2-1.7-.2-2.5 0-4.4 1.6-8.8 5-12.2-4.5-.2-8.9 1.3-12.4 4.4-3.3 3-5.1 6.8-5.5 10.9z" fill="url(#b)" opacity=".5"/><path d="m0 20.4c0 1.2.1 2.4.3 3.6.2 1 .4 1.9.8 2.8.7 2 1.8 3.8 3.3 5.4l1 1.1 4 4.4 2.1 2.3 1.1 1.2 1.7 1.8 1.7 1.9 2.1 2.3 4 4.4 8.1 8.9 4 4.4 2.1 2.3 1.7 1.9 1.7 1.8 1.1 1.2 2.1 2.3 4 4.4 1 1.1c.5.6 1.1 1.1 1.7 1.6 0 0 .1 0 .1.1.2.1.3.3.5.4l.1.1c.2.1.3.2.5.4.1 0 .1.1.2.1.2.1.3.2.5.3.1 0 .1.1.2.1.2.1.3.2.5.3.1 0 .2.1.2.1.2.1.3.2.5.3h.1s.1.1.2.1c.1.1.3.1.4.2.1 0 .1 0 .2.1.3.1.6.2.9.4.1 0 .2.1.3.1s.3.1.4.1.2.1.2.1h.1c.2.1.4.1.6.2.1 0 .2 0 .3.1.2 0 .4.1.6.1.1 0 .2 0 .3.1.2 0 .4.1.6.1h.3c.2 0 .4 0 .6.1h.3.4.4.3.6.3.6.3c.2 0 .4 0 .6-.1h.3c.2 0 .4-.1.6-.1h.1c.1 0 .2 0 .2-.1.1 0 .3-.1.4-.1s.2-.1.3-.1c.3-.1.6-.2.9-.3.1 0 .2 0 .2-.1.2-.1.3-.1.5-.2.1 0 .2-.1.2-.1s0 0 .1 0c.2-.1.3-.1.5-.2.1 0 .2-.1.2-.1.2-.1.3-.2.5-.2.1 0 .1-.1.2-.1.2-.1.3-.2.5-.3.1 0 .1-.1.2-.1.2-.1.4-.2.5-.3.1 0 .1-.1.2-.1.2-.1.4-.2.6-.4 0 0 .1 0 .1-.1.6-.4 1.3-.9 1.9-1.5l1.1-1 4.4-4 2.3-2.1 1.2-1.1 17.6-16 8.1-7.3 25.5-23.1 2-1.8c.1-.1.3-.2.4-.3l6.4-5.8 1.6-1.4.2-.2 1.2-1.1c1.9-1.4 4-2.3 6.2-2.8.2 0 .3-.1.5-.1s.4-.1.6-.1c.7-.1 1.5-.2 2.2-.2.6-4.5-.6-9.1-3.6-12.9-.2 0-.4 0-.6 0-1.2 0-2.4.1-3.6.3-1 .2-1.9.4-2.8.8-2 .7-3.8 1.8-5.5 3.3l-1.1 1-1.9 1.7-2 1.8c-.1.1-.3.2-.4.3l-8 7.2-.2.2-26.1 23.9-8.1 7.3-21.4 19.5-2.3 2.1-.5.5c-.1 0-.1.1-.2.1-.3.2-.6.4-1 .6-2.5 1.4-5.5 1.2-7.8-.4-.3-.3-.7-.5-1-.8 0 0 0 0-.1 0l-.6-.7-2-2.2-5.2-5.7-7.3-8-.2-.2-8.8-9.7-.2-.2-7.3-8-5.2-5.7-2.5-2.9c-1.4-1.9-2.3-4-2.8-6.2 0-.2-.1-.3-.1-.5s-.1-.4-.1-.6c-.8-5.2.8-10.7 4.8-14.7-4.3-.2-8.7 1.2-12.2 4.4-3.6 3.3-5.5 7.7-5.6 12.3z" fill="#2294d3"/><path d="m128.8 23.8 2.1 2.3.5.6.2.2.3-.3 2-1.8c.1-.1.3-.2.4-.3l6.4-5.8 1.6-1.4.2-.2 1.2-1.1c1.9-1.4 4-2.3 6.2-2.8.2 0 .3-.1.5-.1s.4-.1.6-.1c.7-.1 1.5-.2 2.2-.2.6-4.5-.6-9.1-3.6-12.9-.2 0-.4 0-.6 0-1.2 0-2.4.1-3.6.3-1 .2-1.9.4-2.8.8-2 .7-3.8 1.8-5.5 3.3l-1.1 1-1.9 1.7-2 1.8c-.1.1-.3.2-.4.3l-8 7.2-.2.2-.7.6 2 2.2z" fill="url(#c)" opacity=".5"/><path d="m83.8 56.8 3.9 4.4 2.1 2.3.7.8.1.1c1.2 1.8 2 3.8 2.5 5.8 0 .2.1.3.1.5s.1.4.1.6c.1.8.2 1.6.2 2.4.1 4.5-1.6 8.9-5 12.3 4.3.2 8.7-1.2 12.2-4.4 0 0 0 0 .1-.1 3.6-3.3 5.5-7.8 5.6-12.3 0-1.2-.1-2.4-.3-3.6-.2-1-.4-1.9-.8-2.8-.7-2-1.8-3.8-3.3-5.5l-1-1.1-3-3.3-2-2.2-1.1-1.2-5.6-6.1-9.7 8.8z" fill="url(#d)" opacity=".5"/><path d="m23.6 33.9-3.9-4.4-2.1-2.3-1.7-1.9-.1-.1c-1.2-1.8-2-3.8-2.5-5.8 0-.2-.1-.3-.1-.5s-.1-.4-.1-.6c-.1-.8-.2-1.6-.2-2.4-.1-4.5 1.6-8.9 5-12.3-4.4-.1-8.7 1.3-12.2 4.4 0 0 0 0-.1.1-3.6 3.3-5.5 7.7-5.6 12.3 0 1.2.1 2.4.3 3.6.2 1 .4 1.9.8 2.8.7 2 1.8 3.8 3.3 5.4l1 1.1 4 4.4 2.1 2.3 1.1 1.2 5.6 6.1 9.7-8.8z" fill="url(#e)" opacity=".5"/><path d="m0 19.7c4.4-3.5 10-4.6 15.1-3.3.2 0 .4.1.6.1s.3.1.5.1c2.1.7 4.2 1.8 5.9 3.4l2.7 2.9 19.4 21.4c0 .1.1.1.1.2l1.7 1.9 2.1 2.3 3.9 4.4 17.5 19.4 1.1 1.2 2.1 2.3 3 3.3 1 1.1c1.5 1.6 3.2 2.9 5.1 3.9.9.4 1.8.8 2.7 1.1 1.2.3 2.3.6 3.5.7 4.5.3 9.2-1.1 12.8-4.4 3.5-3.1 5.4-7.4 5.6-11.7-4.4 3.5-10 4.6-15.1 3.3-.2 0-.4-.1-.6-.2-.2 0-.3-.1-.5-.1-2.1-.7-4.2-1.8-5.9-3.4l-1.7-1.9-19.2-21.4c0-.1-.1-.1-.1-.2l-1.7-1.9-2.1-2.3-3.9-4.4-17.7-19.3-1.1-1.2-2.1-2.3-4-4.4-1-1.1c-1.5-1.6-3.2-2.9-5.1-3.9-.9-.4-1.8-.8-2.7-1.1-1.2-.3-2.3-.6-3.5-.6-4.5-.3-9.1 1.1-12.8 4.4-3.4 3.1-5.3 7.4-5.6 11.7z" fill="#20af59"/><path d="m54.9 17c4.4-3.5 10-4.6 15.1-3.3.2 0 .4.1.6.2.2 0 .3.1.5.1 2.1.7 4.1 1.8 5.8 3.3l1.6 1.7 2.1 2.3 4 4.4 13.1 14.4 3.3 3.7 1 1.2 2.1 2.3 2.3 2.5 1.7 1.9 1 1.1c.5.6 1.1 1.1 1.7 1.6 0 0 .1 0 .1.1.2.1.3.3.5.4l.1.1c.2.1.3.2.5.4.1 0 .1.1.2.1.2.1.3.2.5.3.1 0 .1.1.2.1.2.1.3.2.5.3.1 0 .2.1.2.1.2.1.3.2.5.3h.1s.2.1.2.1c.1.1.3.1.4.2.1 0 .2.1.2.1.3.1.6.2.8.3.1 0 .2.1.3.1s.3.1.4.1.2.1.2.1h.1c.2.1.4.1.6.2.1 0 .2 0 .3.1.2 0 .4.1.6.1.1 0 .2 0 .3.1.2 0 .4.1.6.1h.3c.2 0 .4 0 .6.1h.3.4s.3 0 .4 0h.3.6.3.6.3c.2 0 .4 0 .6-.1h.3c.2 0 .4-.1.6-.1h.1.2c.2 0 .3-.1.5-.1.1 0 .2 0 .3-.1.6-.1 1.1-.3 1.7-.5.1 0 .1-.1.2-.1h.1c.2-.1.3-.1.5-.2.1 0 .2-.1.2-.1.2-.1.4-.2.5-.2s.1-.1.2-.1c.2-.1.4-.2.5-.3.1 0 .1-.1.2-.1.2-.1.4-.2.6-.3 0 0 .1 0 .1-.1.2-.1.4-.2.6-.4.7-.4 1.3-.9 1.9-1.5l1.1-1 4.4-4 2.3-2 1.2-1.1 3-2.7 3.2-2.9 1.1-1 .8-.7.7-.6.8-.8.3-.3.4-.4 1.1-1 .7-.7 2.5-2.3 1.9-1.7 1.1-1c1.6-1.5 2.9-3.2 3.9-5.1.4-.9.8-1.8 1.1-2.7.3-1.2.6-2.3.7-3.5 0-.2 0-.4 0-.6.2-4.3-1.3-8.7-4.4-12.2s-7.4-5.3-11.7-5.6c3 3.7 4.2 8.4 3.6 12.9-.1.7-.2 1.5-.4 2.2 0 .2-.1.4-.2.6 0 .2-.1.3-.1.5-.7 2.1-1.8 4.2-3.4 5.9l-1.3 1.2-.1.1-8 7.3-2.5 2.2-.2.2-7.2 6.5-2 1.8-1 .9c-.5.4-1 .7-1.6 1-2.2 1-4.8.9-6.8-.4-.5-.3-.9-.7-1.3-1l-.9-1-.2-.2-.5-.6-2.1-2.3-4-4.4-2-2.2-14.4-15.9-1.1-1.2-2.1-2.3-4-4.4-1-1.1c-1.5-1.6-3.2-2.9-5.1-3.9-.9-.4-1.8-.8-2.7-1.1-1.2-.3-2.3-.6-3.5-.6-4.5-.3-9.1 1.2-12.8 4.5-3.4 3.1-5.3 7.4-5.6 11.7z" fill="#20af59"/><path d="m75.7 59.9 9.1-8.2 8.7 9.7-9 8.2z" fill="url(#f)" opacity=".7"/><path d="m107.3 31.4 9-8.2 8.8 9.6-9 8.2z" fill="url(#g)" opacity=".5"/><path d="m97.6 40.1 8.7 9.7-6 5.6-8.8-9.7z" fill="url(#h)" opacity=".7"/><path d="m81.8 54.5 9.7-8.8-6.8-7.5-10 8.5z" fill="url(#i)" opacity=".5"/><path d="m90.5 64.1 9.8-8.8 3.5 4.3-11 8.9c-.2-2.4-2.3-4.4-2.3-4.4z" fill="url(#j)" opacity=".5"/><path d="m66 68.7 8.8 9.7c-4.9 4.3-5.3 4.8-7 5.4-3.4 1.2-8-12.7-8-12.7s3.3.6 6.2-2.4z" fill="url(#k)" opacity=".5"/></svg>